<svg width="162" height="167" viewBox="0 0 162 167" fill="none" xmlns="http://www.w3.org/2000/svg">
<path d="M141.009 22.9C127.235 8.24402 107.909 0.5 85.116 0.5C68.039 0.5 52.929 5.08901 40.581 13.864C32.2751 18.0279 24.8946 23.8245 18.881 30.907C6.705 45.16 0 64.316 0 84.845C0 133.836 30.813 166.752 76.674 166.752C94.182 166.752 109.527 162.136 121.92 153.309C130.339 149.105 137.79 143.192 143.796 135.947C155.518 121.876 161.974 102.861 161.974 82.404C161.976 58.07 154.726 37.494 141.009 22.9ZM85.677 149.317C45.863 149.317 21.005 121.091 21.005 79.41C21.005 58.01 29.541 36.925 46.638 24.31C55.8473 19.965 65.9282 17.7834 76.11 17.932C115.362 17.932 140.97 44.285 140.97 87.839C140.97 108.852 133.037 130.154 115.811 142.91C107.428 146.959 97.427 149.317 85.677 149.317Z" fill="black"/>
<path d="M85.6769 42.962C77.8209 42.962 71.3669 45.485 66.4769 50.044C53.6399 54.549 46.5769 68.011 46.5769 86.71C46.5769 107.647 57.9769 124.094 75.9209 124.094C83.9669 124.094 90.2859 121.609 94.9689 117.122C108.069 112.693 114.269 98.999 114.269 79.97C114.276 54.926 102.312 42.962 85.6769 42.962ZM84.9289 106.662C73.0109 106.662 67.5829 93.504 67.5829 81.278C67.5829 72.533 69.4829 65.234 72.9389 60.725V60.72C74.1699 60.4995 75.4183 60.3903 76.6689 60.394C87.6829 60.394 93.2689 68.808 93.2689 85.401C93.2689 96.207 91.2039 102.637 88.4299 106.464C87.2694 106.616 86.0992 106.682 84.9289 106.662Z" fill="black"/>
<path d="M149.974 82.482C149.974 115.564 130.347 149.395 85.6742 149.395C45.8602 149.395 21.0022 121.169 21.0022 79.488C21.0022 45.658 42.3112 12.575 85.1132 12.575C124.366 12.575 149.974 38.929 149.974 82.482ZM85.6742 43.04C66.4222 43.04 55.5802 58.18 55.5802 81.356C55.5802 102.294 66.9802 118.74 84.9262 118.74C104.926 118.74 114.272 103.414 114.272 80.048C114.273 55.004 102.31 43.04 85.6752 43.04H85.6742Z" fill="#FCD015"/>
<path d="M85.2661 149.395C76.0997 149.5 67.0025 147.798 58.4941 144.386C50.7707 141.225 43.8364 136.406 38.1821 130.268C32.429 123.934 28.0265 116.494 25.2431 108.403C22.1304 99.3111 20.5591 89.7629 20.5941 80.153H55.1821C55.1761 80.532 55.1721 80.937 55.1721 81.353C55.1405 86.3187 55.8352 91.2623 57.2341 96.027C58.4728 100.302 60.4647 104.321 63.1161 107.896C65.5665 111.201 68.7258 113.915 72.3621 115.839C76.1186 117.777 80.2902 118.773 84.5171 118.739C89.0055 118.825 93.454 117.883 97.5231 115.987C101.176 114.193 104.32 111.511 106.668 108.187C109.215 104.503 111.049 100.375 112.074 96.015C113.316 90.8206 113.917 85.4936 113.864 80.153H149.541C149.558 80.94 149.566 81.724 149.566 82.482C149.567 86.6239 149.256 90.76 148.635 94.855C148.017 98.9376 147.069 102.963 145.801 106.893C143.33 114.721 139.381 122.003 134.168 128.344C128.743 134.88 121.9 140.094 114.159 143.592C105.054 147.571 95.2013 149.55 85.2661 149.395Z" fill="#FBB500"/>
<path d="M85.2679 152.395C65.0129 152.395 47.9019 145.375 35.7849 132.095C23.8849 119.051 17.5959 100.861 17.5959 79.489C17.5959 45.817 38.5959 9.57599 84.7069 9.57599C104.953 9.57599 122.012 16.342 134.042 29.142C146.161 42.042 152.566 60.482 152.566 82.484C152.566 100.84 146.851 117.809 136.474 130.266C124.413 144.742 106.706 152.395 85.2679 152.395ZM84.7069 15.575C42.7189 15.575 23.5959 48.706 23.5959 79.488C23.5959 120.132 47.8029 146.395 85.2679 146.395C127.612 146.395 146.568 114.295 146.568 82.483C146.566 41.213 122.863 15.575 84.7069 15.575ZM84.52 121.74C65.475 121.74 52.174 105.133 52.174 81.356C52.174 55.871 64.8539 40.04 85.2679 40.04C105.054 40.04 116.868 54.996 116.868 80.048C116.866 106.544 105.076 121.74 84.52 121.74ZM85.2679 46.04C68.3019 46.04 58.174 59.24 58.174 81.356C58.174 101.601 69.008 115.74 84.52 115.74C96.539 115.74 110.866 109.548 110.866 80.048C110.866 58.435 101.536 46.04 85.2679 46.04Z" fill="#FCD015"/>
</svg>
