<svg width="146" height="170" viewBox="0 0 146 170" fill="none" xmlns="http://www.w3.org/2000/svg">
<path d="M45.632 20.504C45.7806 20.4983 45.9293 20.5149 46.073 20.553C47.029 21.127 62.7 49.221 69.389 64.893H70.537C78.756 49.603 94.4271 20.744 95.7651 20.553C95.7947 20.5513 95.8244 20.5513 95.854 20.553C98.554 20.553 126.154 28.038 126.343 30.303C126.535 32.788 96.529 85.728 95.191 87.639C102.454 99.679 129.019 146.695 128.829 148.033C128.285 149.485 104.123 157.661 96.292 157.661C95.9241 157.664 95.5565 157.64 95.1921 157.589C94.0461 157.206 78.374 128.538 70.347 112.867H69.2001C61.3641 128.538 45.883 157.206 44.928 157.206C44.3791 157.293 43.8238 157.334 43.268 157.326C34.874 157.326 12.411 150.791 12.056 149.371C11.674 148.033 37.6661 100.444 45.5021 87.639C44.3541 85.919 14.923 32.979 15.114 30.494C15.114 28.301 41.358 20.507 45.634 20.507L45.632 20.504ZM45.634 8.50702C40.95 8.50702 30.811 11.464 25.183 13.227C22.296 14.127 18.135 15.504 14.717 16.91C11.317 18.31 3.43504 21.548 3.12404 29.974C2.93604 33.625 4.15704 36.415 8.95204 45.724C11.479 50.63 14.952 57.143 19.262 65.082C22.928 71.829 28.085 81.2 31.63 87.527C26.938 95.637 20.45 107.333 15.155 117.073C11.196 124.354 7.80802 130.709 5.35502 135.454C0.698023 144.467 -0.898974 147.554 0.476026 152.529C2.25403 159.1 8.26903 161.237 11.882 162.521C14.489 163.447 17.911 164.493 21.517 165.466C26.857 166.908 36.783 169.326 43.265 169.326C44.3051 169.332 45.3443 169.265 46.375 169.126C52.089 168.467 54.975 164.026 55.975 162.492C56.606 161.522 57.394 160.224 58.384 158.524C60.078 155.618 62.371 151.513 65.016 146.654C66.597 143.754 68.236 140.703 69.861 137.649C71.539 140.749 73.224 143.84 74.837 146.763C77.537 151.657 79.8781 155.793 81.604 158.728C84.789 164.144 86.71 167.413 91.384 168.973L92.366 169.301L93.388 169.456C94.3481 169.598 95.3175 169.667 96.288 169.663C102.275 169.663 111.88 167.041 118.883 164.842C122.627 163.666 126.223 162.415 129.011 161.317C133.011 159.741 137.988 157.781 140.062 152.247L140.52 151.023L140.705 149.73C141.33 145.348 140.039 142.952 135.236 134.036C132.783 129.484 129.336 123.242 125.269 115.984C119.449 105.601 113.351 94.906 109.105 87.616C113.127 80.601 118.955 70.195 121.832 65.008C126.226 57.084 129.769 50.563 132.365 45.625C137.447 35.95 138.605 33.291 138.304 29.383V29.347V29.31C137.614 21.01 129.895 18.049 126.185 16.623C122.738 15.299 118.449 13.963 115.457 13.076C109.766 11.387 99.657 8.55499 95.857 8.55499C95.462 8.55499 95.0651 8.57297 94.6791 8.60797L94.373 8.63501L94.073 8.67902C87.954 9.55402 85.258 14.04 82.136 19.235C80.427 22.079 78.114 26.108 75.263 31.213C73.748 33.924 72.156 36.803 70.563 39.713C68.894 36.494 67.356 33.605 66.163 31.381C63.796 26.981 61.463 22.774 59.587 19.528C56.64 14.422 55.295 12.091 52.267 10.273L51.133 9.59198L49.879 9.17401C48.5139 8.72407 47.0844 8.50009 45.647 8.51099L45.634 8.50702Z" fill="black"/>
<path d="M50.6369 12.497C50.7852 12.4912 50.9335 12.5078 51.0769 12.546C52.0339 13.12 67.7049 41.214 74.3939 56.886H75.5369C83.7539 41.596 99.4259 12.738 100.764 12.546C100.794 12.5444 100.824 12.5444 100.854 12.546C103.554 12.546 131.154 20.031 131.344 22.296C131.536 24.782 101.529 77.721 100.191 79.632C107.454 91.672 134.02 138.688 133.829 140.026C133.284 141.478 109.122 149.654 101.292 149.654C100.924 149.657 100.556 149.633 100.192 149.582C99.046 149.2 83.3739 120.532 75.3469 104.86H74.2C66.364 120.532 50.883 149.2 49.927 149.2C49.378 149.287 48.8226 149.326 48.2669 149.319C39.8739 149.319 17.411 142.785 17.056 141.364C16.673 140.026 42.666 92.437 50.502 79.632C49.354 77.913 19.9209 24.972 20.1129 22.487C20.1129 20.294 46.3569 12.5 50.6339 12.5L50.6369 12.497ZM50.6339 0.5C45.9499 0.5 35.8099 3.45697 30.1829 5.21997C27.2949 6.11997 23.1349 7.49701 19.7169 8.90302C16.3169 10.303 8.43494 13.541 8.12294 21.967C7.93494 25.619 9.15594 28.409 13.9509 37.717C16.4779 42.623 19.9509 49.136 24.2609 57.076C27.9269 63.822 33.0849 73.193 36.6289 79.52C31.9369 87.63 25.4489 99.327 20.1539 109.066C16.1949 116.347 12.8079 122.703 10.3539 127.447C5.69792 136.46 4.09993 139.547 5.47493 144.522C7.25193 151.093 13.2689 153.23 16.8809 154.514C19.4889 155.44 22.9109 156.486 26.5159 157.459C31.8559 158.901 41.7819 161.319 48.2639 161.319C49.3043 161.325 50.3439 161.258 51.375 161.119C57.088 160.459 59.9749 156.019 60.9749 154.484C61.6059 153.514 62.3929 152.216 63.3829 150.516C65.0769 147.61 67.3699 143.505 70.0159 138.646C71.5959 135.746 73.2359 132.695 74.8609 129.641C76.5379 132.741 78.2229 135.832 79.8369 138.755C82.5369 143.649 84.878 147.786 86.604 150.72C89.788 156.136 91.7039 159.405 96.3839 160.965L97.3659 161.293L98.3869 161.448C99.347 161.59 100.316 161.659 101.287 161.655C107.273 161.655 116.878 159.034 123.882 156.834C127.624 155.659 131.222 154.407 134.009 153.309C138.009 151.733 142.986 149.773 145.06 144.239L145.519 143.015L145.703 141.722C146.328 137.34 145.037 134.944 140.234 126.028C137.783 121.476 134.334 115.234 130.267 107.976C124.449 97.593 118.349 86.898 114.105 79.608C118.126 72.593 123.955 62.187 126.83 57C131.224 49.077 134.769 42.555 137.363 37.618C142.447 27.942 143.605 25.284 143.302 21.375V21.339V21.302C142.613 13.002 134.894 10.041 131.185 8.61597C127.736 7.29097 123.447 5.95599 120.457 5.06799C114.765 3.37899 104.651 0.546997 100.857 0.546997C100.457 0.546997 100.064 0.564976 99.679 0.599976L99.3729 0.627014L99.073 0.671021C92.9539 1.54602 90.2589 6.03299 87.1359 11.227C85.4279 14.071 83.1149 18.1 80.2619 23.206C78.7489 25.916 77.162 28.795 75.562 31.706C73.894 28.486 72.3559 25.597 71.1619 23.374C68.7949 18.974 66.4619 14.766 64.5859 11.52C61.639 6.42002 60.2929 4.08301 57.2659 2.26501L56.1319 1.58398L54.8779 1.16699C53.5129 0.71634 52.0834 0.492043 50.6459 0.502991L50.6339 0.5Z" fill="black"/>
<path d="M71.188 104.856C63.352 120.528 47.872 149.196 46.917 149.196C40.417 150.342 14.426 142.889 14.044 141.36C13.662 140.022 39.653 92.433 47.489 79.628C46.342 77.909 16.911 24.968 17.101 22.483C17.101 20.191 45.769 11.783 48.063 12.545C49.018 13.119 64.69 41.213 71.38 56.885H72.526C80.745 41.595 96.415 12.737 97.753 12.545C99.853 12.355 128.141 19.998 128.333 22.292C128.524 24.778 98.518 77.717 97.18 79.628C104.442 91.668 131.008 138.684 130.817 140.022C130.245 141.551 103.487 150.534 97.18 149.578C96.034 149.196 80.3619 120.528 72.3349 104.856H71.188Z" fill="#FCD015"/>
<path d="M97.6771 149.578C96.5311 149.196 80.8591 120.528 72.8371 104.856H71.6851C63.8491 120.528 48.3691 149.196 47.4141 149.196C41.6311 150.216 20.4051 144.424 15.5371 142.06V138.87C20.3201 128.77 40.9191 91.215 47.8831 79.797H97.7831C105.189 92.103 131.508 138.69 131.319 140.021C130.775 141.473 106.619 149.647 98.7831 149.648C98.4132 149.652 98.0435 149.629 97.6771 149.578Z" fill="#FBB500"/>
<path d="M101.206 152.641C100.712 152.644 100.219 152.61 99.7309 152.541L99.2309 152.42C97.8719 151.966 97.3089 151.778 87.7129 134.397C83.3999 126.586 78.5739 117.591 74.7859 110.321C71.1269 117.491 66.3989 126.451 62.1079 134.333C52.7579 151.505 52.0949 152.165 50.1569 152.19C45.5789 152.834 35.8799 150.596 30.4339 149.181C14.9009 145.146 14.4939 143.52 14.1339 142.081C13.7339 140.702 13.5469 140.029 28.0499 113.354C35.4889 99.671 43.0199 86.262 47.0009 79.595C44.5379 75.285 38.1079 63.717 32.1589 52.768C17.1949 25.23 17.0189 23.519 17.1059 22.312C17.1565 21.7079 17.348 21.124 17.6651 20.6074C17.9823 20.0907 18.4161 19.6556 18.9319 19.337C22.6459 16.659 48.0839 8.38403 52.0119 9.69203L52.3259 9.792L52.6099 9.96302C53.2569 10.352 54.2349 10.94 63.2099 27.62C65.6149 32.087 71.0559 42.353 75.1509 51.237C97.3789 9.98501 98.3259 9.85004 100.326 9.56404L100.48 9.54603C103.606 9.26903 129.112 16.306 132.916 19.5C133.309 19.8053 133.635 20.1872 133.876 20.6224C134.116 21.0576 134.266 21.5372 134.316 22.032C134.416 23.283 134.516 24.557 118.948 52.619C112.802 63.702 106.233 75.276 103.675 79.624C107.625 86.278 115.351 99.777 122.405 112.36C137.057 138.503 136.97 139.108 136.781 140.436L136.735 140.758L136.621 141.058C136.187 142.218 135.593 143.806 120.021 148.585C114.886 150.179 106.081 152.641 101.206 152.641ZM72.3369 101.856H77.1719L78.0079 103.488C85.9769 119.045 98.5079 141.847 101.688 146.661C107.446 146.511 124.169 141.247 129.995 138.761C125.286 129.451 104.902 93.261 97.6139 81.176L96.6059 79.505L97.7259 77.905C99.4149 75.377 123.385 32.982 127.756 23.391C122.738 21.12 107.025 16.665 101.991 15.715C99.6389 19.205 92.4309 31.776 78.1719 58.303L77.3219 59.883H72.4009L71.6229 58.061C65.5589 43.852 52.8739 20.94 49.5509 15.596C44.6069 16.349 28.6129 21.107 23.6419 23.515C27.8269 32.896 51.4699 75.583 52.9979 77.979L54.0069 79.559L53.0509 81.192C45.9509 92.802 25.3509 130.492 20.8119 140.002C26.5379 142.202 42.6979 146.414 48.3929 146.325C51.5309 141.547 64.1779 118.171 71.5079 103.512L72.3369 101.856Z" fill="#FCD015"/>
<path d="M4.86011 24.103L9.98712 15.898L14.3171 23.534C14.3171 23.534 11.7081 29.305 11.4701 29.463C11.2321 29.621 4.86011 24.103 4.86011 24.103Z" fill="black"/>
<path d="M144.374 145.763L138.518 155.134L130.991 149.655L138.56 139.886L144.374 145.763Z" fill="black"/>
</svg>
